<svg id="Ebene_1" data-name="Ebene 1" xmlns="http://www.w3.org/2000/svg" viewBox="0 0 2256.37 521.13"><defs><style>.cls-1{fill:#717171;}.cls-2,.cls-4,.cls-6{fill:#91c361;}.cls-3,.cls-5{fill:none;}.cls-3,.cls-4,.cls-5,.cls-6{stroke:#91c361;}.cls-3,.cls-4,.cls-6{stroke-miterlimit:10;}.cls-3,.cls-5,.cls-6{stroke-width:20px;}.cls-4{stroke-width:5px;}.cls-5,.cls-6{stroke-linecap:round;}.cls-5{stroke-linejoin:round;}</style></defs><path class="cls-1" d="M569.44,416.53q-17.88,0-27.74-12t-9.87-34v-101H515.67V252.43h16.16V192.91h22.69v59.52h39.63v17.09H554.52v99.77q0,13.21,5.13,20.2t14.6,7a26.63,26.63,0,0,0,16.17-5.13l5.75,18a47.13,47.13,0,0,1-12.44,5.21A54.47,54.47,0,0,1,569.44,416.53Z" transform="translate(-78.88 -39.5)"/><path class="cls-1" d="M645.74,411.56V144.11h22.68V274.19q6.54-11.19,20.21-19T722,247.46q18.5,0,31.86,7.61a50.44,50.44,0,0,1,20.51,22.15q7.14,14.52,7.15,35v99.3H758.87V316.61q0-24.71-11.5-37.76t-32.48-13.06q-14.61,0-24.94,5.91A42.37,42.37,0,0,0,674,287.16a40.36,40.36,0,0,0-5.6,20.75V411.56Z" transform="translate(-78.88 -39.5)"/><path class="cls-1" d="M856.77,220.57a13.92,13.92,0,0,1-7.38-2,15.27,15.27,0,0,1-5.36-5.44,14.36,14.36,0,0,1-2-7.46,14,14,0,0,1,2-7.38,15.54,15.54,0,0,1,5.36-5.36,13.92,13.92,0,0,1,7.38-2,14.2,14.2,0,0,1,7.53,2,16,16,0,0,1,5.37,5.28,13.7,13.7,0,0,1,2,7.31,14.76,14.76,0,0,1-2,7.61,15.38,15.38,0,0,1-5.37,5.44A14.2,14.2,0,0,1,856.77,220.57Zm-11.35,191V252.43h22.69V411.56Z" transform="translate(-78.88 -39.5)"/><path class="cls-1" d="M935.25,411.56V252.43h22.68v21.76q6.54-11.19,20.21-19t33.41-7.77q18.5,0,31.86,7.61a50.38,50.38,0,0,1,20.51,22.15q7.14,14.52,7.15,35v99.3h-22.69V316.61q0-24.71-11.5-37.68t-32.48-13q-14.61,0-24.94,5.83a41.73,41.73,0,0,0-15.93,15.38,40.36,40.36,0,0,0-5.6,20.75V411.56Z" transform="translate(-78.88 -39.5)"/><path class="cls-1" d="M1135.09,411.56V144.27h22.69V317.54l63.56-65.11H1251l-72.57,74.9,76.3,84.23h-29.06L1157.78,336v75.52Z" transform="translate(-78.88 -39.5)"/><path class="cls-1" d="M1332.14,416.53a15.33,15.33,0,0,1-8-2.17,16,16,0,0,1-7.85-13.83,15.39,15.39,0,0,1,2.17-8,16.16,16.16,0,0,1,5.75-5.75,15.38,15.38,0,0,1,7.93-2.09,15.94,15.94,0,0,1,13.75,23.85,16.09,16.09,0,0,1-5.67,5.83A15.26,15.26,0,0,1,1332.14,416.53Z" transform="translate(-78.88 -39.5)"/><path class="cls-2" d="M1495.15,497q-30.15,0-51-11.81t-30.93-34.5l19.12-8.86q7.31,16.47,24.24,26.19t38.54,9.71q18.18,0,32.56-7.22a55,55,0,0,0,22.69-20.91q8.31-13.67,8.31-32.79V378a73.45,73.45,0,0,1-27.27,28.29,74.49,74.49,0,0,1-38.62,10.25,76,76,0,0,1-40.17-10.87,78.37,78.37,0,0,1-28.44-30q-10.49-19.11-10.49-43.66t10.41-43.44a79.28,79.28,0,0,1,28.36-30.07q18-11,40.8-11a74.92,74.92,0,0,1,38.46,10.1,70.39,70.39,0,0,1,27,28v-33.1h22.69V415.91q0,26.41-10.41,44.52a66.65,66.65,0,0,1-29.76,27.36Q1521.88,497,1495.15,497Zm3.11-100.23q18,0,31.86-8.32a58.84,58.84,0,0,0,21.75-23q7.94-14.69,7.93-33.33,0-19-7.93-33.64a58.84,58.84,0,0,0-21.75-23q-13.84-8.31-31.71-8.32t-31.7,8.32a58.84,58.84,0,0,0-21.75,23Q1437,313.2,1437,332.15q0,18.64,7.85,33.33a58.14,58.14,0,0,0,21.75,23Q1480.54,396.8,1498.26,396.8Z" transform="translate(-78.88 -39.5)"/><path class="cls-2" d="M1648.22,411.56V252.43h22.69v23.46q7.6-14,19.66-21.21t27.89-7.22a67.93,67.93,0,0,1,14.22,1.55,58.2,58.2,0,0,1,12.51,4l-9.32,19.12a43.39,43.39,0,0,0-10.65-3.58,56.11,56.11,0,0,0-11.42-1.24,41.33,41.33,0,0,0-20.83,5.59,47.85,47.85,0,0,0-15.92,14.53,33,33,0,0,0-6.14,19V411.56Z" transform="translate(-78.88 -39.5)"/><path class="cls-2" d="M1859.72,416.53q-25,0-44.68-11a81.17,81.17,0,0,1-30.85-30.07q-11.19-19-11.19-42.81a85.73,85.73,0,0,1,6.45-33.34,84.55,84.55,0,0,1,18-27.11A83.15,83.15,0,0,1,1824.13,254a81.58,81.58,0,0,1,32.48-6.52q23.63,0,42,10.33a77.63,77.63,0,0,1,29.21,28.52q10.8,18.18,11.42,41.95c0,1.25,0,2.26-.07,3s-.19,1.74-.39,2.88H1795.54q0,18.65,8.39,32.95A60.07,60.07,0,0,0,1827,389.57q14.68,8.16,33.64,8.16,18,0,32.4-7.54a65.71,65.71,0,0,0,24-21.68l16.78,9A78.15,78.15,0,0,1,1903,406.28Q1883.49,416.53,1859.72,416.53Zm-62.94-99.45H1916.6a56.46,56.46,0,0,0-10.42-26.34A59.21,59.21,0,0,0,1885,272.79a61,61,0,0,0-28-6.53,63,63,0,0,0-28.59,6.45,57.9,57.9,0,0,0-21.22,17.87A57.21,57.21,0,0,0,1796.78,317.08Z" transform="translate(-78.88 -39.5)"/><path class="cls-2" d="M2067.18,416.53q-25,0-44.68-11a81.17,81.17,0,0,1-30.85-30.07q-11.19-19-11.19-42.81a85.73,85.73,0,0,1,6.45-33.34,84.55,84.55,0,0,1,17.95-27.11A83.15,83.15,0,0,1,2031.59,254a81.58,81.58,0,0,1,32.48-6.52q23.63,0,42,10.33a77.63,77.63,0,0,1,29.21,28.52q10.8,18.18,11.42,41.95c0,1.25,0,2.26-.07,3s-.19,1.74-.39,2.88H2003q0,18.65,8.39,32.95a60.07,60.07,0,0,0,23.08,22.45q14.68,8.16,33.64,8.16,18,0,32.4-7.54a65.71,65.71,0,0,0,24-21.68l16.78,9a78.15,78.15,0,0,1-30.84,28.75Q2090.94,416.53,2067.18,416.53Zm-62.94-99.45h119.82a56.46,56.46,0,0,0-10.42-26.34,59.21,59.21,0,0,0-21.21-17.95,61,61,0,0,0-28-6.53,63,63,0,0,0-28.59,6.45,57.9,57.9,0,0,0-21.22,17.87A57.21,57.21,0,0,0,2004.24,317.08Z" transform="translate(-78.88 -39.5)"/><path class="cls-2" d="M2199.42,411.56V252.43h22.69v21.76q6.53-11.19,20.21-19t33.41-7.77q18.49,0,31.85,7.61a50.4,50.4,0,0,1,20.52,22.15q7.14,14.52,7.15,35v99.3h-22.69V316.61q0-24.71-11.5-37.68t-32.48-13q-14.61,0-24.94,5.83a41.73,41.73,0,0,0-15.93,15.38,40.36,40.36,0,0,0-5.6,20.75V411.56Z" transform="translate(-78.88 -39.5)"/><path class="cls-3" d="M223,550.62H207A29.11,29.11,0,0,1,186.14,542,57.42,57.42,0,0,1,178,531.26,27.87,27.87,0,0,1,174,517V455.34a7.88,7.88,0,0,0-1.66-4.84,50.13,50.13,0,0,1-9.73-21.22c-9.44-42-18.78-44.63-18.78-44.63m69.18,166h16A29.09,29.09,0,0,0,249.88,542,57.42,57.42,0,0,0,258,531.26,27.87,27.87,0,0,0,262,517V455.34a7.94,7.94,0,0,1,1.66-4.84,50.13,50.13,0,0,0,9.73-21.22c9.44-42,18.78-44.63,18.78-44.63" transform="translate(-78.88 -39.5)"/><line class="cls-3" x1="95.82" y1="421.41" x2="183.77" y2="421.41"/><path class="cls-4" d="M263.94,484.23" transform="translate(-78.88 -39.5)"/><path class="cls-4" d="M176,484.23" transform="translate(-78.88 -39.5)"/><line class="cls-3" x1="95.14" y1="466.04" x2="183.11" y2="466.04"/><path class="cls-5" d="M263.18,401.4C331.37,369,431.37,277.82,218,49.5,4.65,277.81,104.65,369,172.83,401.4A105.42,105.42,0,0,0,263.18,401.4Z" transform="translate(-78.88 -39.5)"/><path class="cls-6" d="M218,154.44" transform="translate(-78.88 -39.5)"/><path class="cls-6" d="M133.87,295.25" transform="translate(-78.88 -39.5)"/><path class="cls-6" d="M218,154.44V411.56m0-74.26-84.13-42.05m84.19-47.38-43-21.52m43,111,84.13-42.05M218,247.87l43-21.52" transform="translate(-78.88 -39.5)"/></svg>