<?xml version="1.0" encoding="utf-8"?>
<!-- Generator: Adobe Illustrator 24.3.0, SVG Export Plug-In . SVG Version: 6.00 Build 0)  -->
<svg version="1.1" id="Ebene_1" xmlns="http://www.w3.org/2000/svg" xmlns:xlink="http://www.w3.org/1999/xlink" x="0px" y="0px"
	 viewBox="0 0 500 500" style="enable-background:new 0 0 500 500;" xml:space="preserve">
<style type="text/css">
	.st0{display:none;fill:none;stroke:#FFFFFF;stroke-width:20;stroke-miterlimit:10;}
	.st1{fill:none;stroke:#90C360;stroke-width:20;stroke-miterlimit:10;}
	.st2{fill:#90C360;stroke:#90C360;stroke-width:20;stroke-miterlimit:10;}
	.st3{fill:#90C360;stroke:#90C360;stroke-width:5;stroke-miterlimit:10;}
	.st4{fill:none;stroke:#90C360;stroke-width:20;stroke-linecap:round;stroke-linejoin:round;stroke-miterlimit:10;}
	.st5{fill:#90C360;stroke:#90C360;stroke-width:20;stroke-linecap:round;stroke-miterlimit:10;}
</style>
<path class="st0" d="M184.39,304c-41.54-22.89-68.88-66.65-68.88-117.43c0-74.28,60.21-134.49,134.49-134.49
	s134.49,60.21,134.49,134.49c0,50.76-27.59,94.66-69.1,117.55"/>
<path class="st1" d="M253.9,446.25h-12.54c-6.13,0-12.06-2.37-16.32-6.72c-2.68-2.73-4.82-5.82-6.39-8.45
	c-2.02-3.39-3.09-7.24-3.09-11.18v-48.28c0-1.37-0.46-2.7-1.3-3.79c-6.44-8.35-7.62-16.62-7.62-16.62
	c-7.4-32.9-14.71-34.96-14.71-34.96 M246.11,446.25h12.54c6.13,0,12.06-2.37,16.32-6.72c2.68-2.73,4.82-5.82,6.39-8.45
	c2.02-3.39,3.09-7.24,3.09-11.18v-48.28c0-1.37,0.46-2.7,1.3-3.79c6.44-8.35,7.62-16.62,7.62-16.62
	c7.4-32.9,14.71-34.96,14.71-34.96"/>
<line class="st2" x1="216.08" y1="375.98" x2="284.97" y2="375.98"/>
<path class="st3" d="M285.98,394.25"/>
<path class="st3" d="M217.08,394.25"/>
<line class="st2" x1="215.55" y1="410.94" x2="284.45" y2="410.94"/>
<path class="st4" d="M285.38,329.37c53.41-25.34,131.74-96.79-35.38-275.62c-167.11,178.82-88.78,250.28-35.38,275.62
	C237.01,339.99,262.99,339.99,285.38,329.37z"/>
<path class="st5" d="M250,135.94"/>
<path class="st5" d="M184.1,246.23"/>
<path class="st5" d="M250,135.94v201.39 M250,279.17l-65.9-32.94 M250.04,209.12l-33.7-16.85 M250.04,279.17l65.9-32.94 M250,209.12
	l33.7-16.85"/>
</svg>
